<?xml version="1.0" encoding="UTF-8" standalone="no"?><svg xmlns="http://www.w3.org/2000/svg" xmlns:xlink="http://www.w3.org/1999/xlink" contentStyleType="text/css" height="1614px" preserveAspectRatio="none" style="width:871px;height:1614px;background:#FFFFFF;" version="1.1" viewBox="0 0 871 1614" width="871px" zoomAndPan="magnify"><defs/><g><rect fill="#FFFFFF" height="91.0547" style="stroke:#181818;stroke-width:1.0;" width="10" x="286" y="345.6602"/><rect fill="#FFFFFF" height="60.7031" style="stroke:#181818;stroke-width:1.0;" width="10" x="607" y="210.2539"/><rect height="79.0547" style="stroke:#000000;stroke-width:1.5;fill:none;" width="707" x="10" y="556.7695"/><rect height="79.0547" style="stroke:#000000;stroke-width:1.5;fill:none;" width="707" x="10" y="649.8242"/><rect height="79.0547" style="stroke:#000000;stroke-width:1.5;fill:none;" width="707" x="10" y="742.8789"/><rect height="109.4063" style="stroke:#000000;stroke-width:1.5;fill:none;" width="844" x="10" y="835.9336"/><rect height="378.2188" style="stroke:#000000;stroke-width:1.5;fill:none;" width="844" x="10" y="959.3398"/><rect height="95.4063" style="stroke:#000000;stroke-width:1.5;fill:none;" width="844" x="10" y="1351.5586"/><rect height="48.7031" style="stroke:#000000;stroke-width:1.5;fill:none;" width="707" x="10" y="1460.9648"/><line style="stroke:#181818;stroke-width:0.5;fill:none;stroke-dasharray:5.0,5.0;" x1="115" x2="115" y1="89.1992" y2="1526.668"/><line style="stroke:#181818;stroke-width:0.5;fill:none;stroke-dasharray:5.0,5.0;" x1="291" x2="291" y1="89.1992" y2="1526.668"/><line style="stroke:#181818;stroke-width:0.5;fill:none;stroke-dasharray:5.0,5.0;" x1="439" x2="439" y1="89.1992" y2="1526.668"/><line style="stroke:#181818;stroke-width:0.5;fill:none;stroke-dasharray:5.0,5.0;" x1="612" x2="612" y1="89.1992" y2="1526.668"/><line style="stroke:#181818;stroke-width:0.5;fill:none;stroke-dasharray:5.0,5.0;" x1="785" x2="785" y1="89.1992" y2="1526.668"/><rect fill="#E2E2F0" height="83.1992" rx="2.5" ry="2.5" style="stroke:#181818;stroke-width:0.5;" width="190" x="20" y="5"/><text fill="#000000" font-family="sans-serif" font-size="18" font-weight="bold" lengthAdjust="spacing" textLength="131" x="49.5" y="30.6855">Microscope PC</text><line style="stroke:#181818;stroke-width:1.0;" x1="20" x2="210" y1="39.6406" y2="39.6406"/><text fill="#000000" font-family="monospace" font-size="14" lengthAdjust="spacing" textLength="128" x="51" y="58.7158">SerialFIB Server</text><text fill="#000000" font-family="monospace" font-size="14" lengthAdjust="spacing" textLength="176" x="27" y="76.9951">iFLM Automation Client</text><rect fill="#E2E2F0" height="83.1992" rx="2.5" ry="2.5" style="stroke:#181818;stroke-width:0.5;" width="190" x="20" y="1525.668"/><text fill="#000000" font-family="sans-serif" font-size="18" font-weight="bold" lengthAdjust="spacing" textLength="131" x="49.5" y="1551.3535">Microscope PC</text><line style="stroke:#181818;stroke-width:1.0;" x1="20" x2="210" y1="1560.3086" y2="1560.3086"/><text fill="#000000" font-family="monospace" font-size="14" lengthAdjust="spacing" textLength="128" x="51" y="1579.3838">SerialFIB Server</text><text fill="#000000" font-family="monospace" font-size="14" lengthAdjust="spacing" textLength="176" x="27" y="1597.6631">iFLM Automation Client</text><rect fill="#E2E2F0" height="83.1992" rx="2.5" ry="2.5" style="stroke:#181818;stroke-width:0.5;" width="142" x="220" y="5"/><text fill="#000000" font-family="sans-serif" font-size="18" font-weight="bold" lengthAdjust="spacing" textLength="84" x="249" y="30.6855">Driver PC</text><line style="stroke:#181818;stroke-width:1.0;" x1="220" x2="362" y1="39.6406" y2="39.6406"/><text fill="#000000" font-family="monospace" font-size="14" lengthAdjust="spacing" textLength="72" x="255" y="58.7158">xT Server</text><text fill="#000000" font-family="monospace" font-size="14" lengthAdjust="spacing" textLength="128" x="227" y="76.9951">SerialFIB Client</text><rect fill="#E2E2F0" height="83.1992" rx="2.5" ry="2.5" style="stroke:#181818;stroke-width:0.5;" width="142" x="220" y="1525.668"/><text fill="#000000" font-family="sans-serif" font-size="18" font-weight="bold" lengthAdjust="spacing" textLength="84" x="249" y="1551.3535">Driver PC</text><line style="stroke:#181818;stroke-width:1.0;" x1="220" x2="362" y1="1560.3086" y2="1560.3086"/><text fill="#000000" font-family="monospace" font-size="14" lengthAdjust="spacing" textLength="72" x="255" y="1579.3838">xT Server</text><text fill="#000000" font-family="monospace" font-size="14" lengthAdjust="spacing" textLength="128" x="227" y="1597.6631">SerialFIB Client</text><rect fill="#E2E2F0" height="82.5293" rx="2.5" ry="2.5" style="stroke:#181818;stroke-width:0.5;" width="135" x="372" y="5.6699"/><text fill="#000000" font-family="sans-serif" font-size="18" font-weight="bold" lengthAdjust="spacing" textLength="121" x="379" y="31.3555">Scios FIBSEM</text><line style="stroke:#181818;stroke-width:1.0;" x1="372" x2="507" y1="40.3105" y2="40.3105"/><text fill="#000000" font-family="monospace" font-size="14" lengthAdjust="spacing" textLength="72" x="403.5" y="59.3857">xT Client</text><text fill="#000000" font-family="sans-serif" font-size="14" lengthAdjust="spacing" textLength="4" x="437.5" y="78.123"> </text><rect fill="#E2E2F0" height="82.5293" rx="2.5" ry="2.5" style="stroke:#181818;stroke-width:0.5;" width="135" x="372" y="1525.668"/><text fill="#000000" font-family="sans-serif" font-size="18" font-weight="bold" lengthAdjust="spacing" textLength="121" x="379" y="1551.3535">Scios FIBSEM</text><line style="stroke:#181818;stroke-width:1.0;" x1="372" x2="507" y1="1560.3086" y2="1560.3086"/><text fill="#000000" font-family="monospace" font-size="14" lengthAdjust="spacing" textLength="72" x="403.5" y="1579.3838">xT Client</text><text fill="#000000" font-family="sans-serif" font-size="14" lengthAdjust="spacing" textLength="4" x="437.5" y="1598.1211"> </text><rect fill="#E2E2F0" height="83.1992" rx="2.5" ry="2.5" style="stroke:#181818;stroke-width:0.5;" width="190" x="517" y="5"/><text fill="#000000" font-family="sans-serif" font-size="18" font-weight="bold" lengthAdjust="spacing" textLength="107" x="558.5" y="30.6855">METEOR PC</text><line style="stroke:#181818;stroke-width:1.0;" x1="517" x2="707" y1="39.6406" y2="39.6406"/><text fill="#000000" font-family="monospace" font-size="14" lengthAdjust="spacing" textLength="104" x="560" y="58.7158">ODEMIS Server</text><text fill="#000000" font-family="monospace" font-size="14" lengthAdjust="spacing" textLength="176" x="524" y="76.9951">iFLM Automation Server</text><rect fill="#E2E2F0" height="83.1992" rx="2.5" ry="2.5" style="stroke:#181818;stroke-width:0.5;" width="190" x="517" y="1525.668"/><text fill="#000000" font-family="sans-serif" font-size="18" font-weight="bold" lengthAdjust="spacing" textLength="107" x="558.5" y="1551.3535">METEOR PC</text><line style="stroke:#181818;stroke-width:1.0;" x1="517" x2="707" y1="1560.3086" y2="1560.3086"/><text fill="#000000" font-family="monospace" font-size="14" lengthAdjust="spacing" textLength="104" x="560" y="1579.3838">ODEMIS Server</text><text fill="#000000" font-family="monospace" font-size="14" lengthAdjust="spacing" textLength="176" x="524" y="1597.6631">iFLM Automation Server</text><rect fill="#E2E2F0" height="82.5293" rx="2.5" ry="2.5" style="stroke:#181818;stroke-width:0.5;" width="118" x="726" y="5.6699"/><text fill="#000000" font-family="sans-serif" font-size="18" font-weight="bold" lengthAdjust="spacing" textLength="77" x="746.5" y="31.3555">METEOR</text><line style="stroke:#181818;stroke-width:1.0;" x1="726" x2="844" y1="40.3105" y2="40.3105"/><text fill="#000000" font-family="monospace" font-size="14" lengthAdjust="spacing" textLength="104" x="733" y="59.3857">ODEMIS Client</text><text fill="#000000" font-family="sans-serif" font-size="14" lengthAdjust="spacing" textLength="4" x="783" y="78.123"> </text><rect fill="#E2E2F0" height="82.5293" rx="2.5" ry="2.5" style="stroke:#181818;stroke-width:0.5;" width="118" x="726" y="1525.668"/><text fill="#000000" font-family="sans-serif" font-size="18" font-weight="bold" lengthAdjust="spacing" textLength="77" x="746.5" y="1551.3535">METEOR</text><line style="stroke:#181818;stroke-width:1.0;" x1="726" x2="844" y1="1560.3086" y2="1560.3086"/><text fill="#000000" font-family="monospace" font-size="14" lengthAdjust="spacing" textLength="104" x="733" y="1579.3838">ODEMIS Client</text><text fill="#000000" font-family="sans-serif" font-size="14" lengthAdjust="spacing" textLength="4" x="783" y="1598.1211"> </text><rect fill="#FFFFFF" height="91.0547" style="stroke:#181818;stroke-width:1.0;" width="10" x="286" y="345.6602"/><rect fill="#FFFFFF" height="60.7031" style="stroke:#181818;stroke-width:1.0;" width="10" x="607" y="210.2539"/><rect fill="#EEEEEE" height="3" style="stroke:#EEEEEE;stroke-width:1.0;" width="864" x="0" y="120.375"/><line style="stroke:#000000;stroke-width:1.0;" x1="0" x2="864" y1="120.375" y2="120.375"/><line style="stroke:#000000;stroke-width:1.0;" x1="0" x2="864" y1="123.375" y2="123.375"/><rect fill="#EEEEEE" height="24.3516" style="stroke:#000000;stroke-width:2.0;" width="134" x="365" y="109.1992"/><text fill="#000000" font-family="sans-serif" font-size="13" font-weight="bold" lengthAdjust="spacing" textLength="116" x="371" y="126.6943">Setup of SerialFIB</text><rect fill="#EEEEEE" height="3" style="stroke:#EEEEEE;stroke-width:1.0;" width="864" x="0" y="164.7266"/><line style="stroke:#000000;stroke-width:1.0;" x1="0" x2="864" y1="164.7266" y2="164.7266"/><line style="stroke:#000000;stroke-width:1.0;" x1="0" x2="864" y1="167.7266" y2="167.7266"/><rect fill="#EEEEEE" height="24.3516" style="stroke:#000000;stroke-width:2.0;" width="164" x="350" y="153.5508"/><text fill="#000000" font-family="sans-serif" font-size="13" font-weight="bold" lengthAdjust="spacing" textLength="146" x="356" y="171.0459">Connection to METEOR</text><polygon fill="#181818" points="595,206.2539,605,210.2539,595,214.2539,599,210.2539" style="stroke:#181818;stroke-width:1.0;"/><line style="stroke:#181818;stroke-width:1.0;" x1="115" x2="601" y1="210.2539" y2="210.2539"/><text fill="#000000" font-family="sans-serif" font-size="13" lengthAdjust="spacing" textLength="157" x="122" y="205.3975">Hello? TCP on Port:53215?</text><polygon fill="#181818" points="773,236.6055,783,240.6055,773,244.6055,777,240.6055" style="stroke:#181818;stroke-width:1.0;"/><line style="stroke:#181818;stroke-width:1.0;" x1="617" x2="779" y1="240.6055" y2="240.6055"/><text fill="#000000" font-family="sans-serif" font-size="13" lengthAdjust="spacing" textLength="120" x="624" y="235.749">Startup &amp; Calibration</text><polygon fill="#181818" points="126,266.957,116,270.957,126,274.957,122,270.957" style="stroke:#181818;stroke-width:1.0;"/><line style="stroke:#181818;stroke-width:1.0;" x1="120" x2="611" y1="270.957" y2="270.957"/><text fill="#000000" font-family="sans-serif" font-size="13" lengthAdjust="spacing" textLength="107" x="132" y="266.1006">Socket Connected</text><rect fill="#EEEEEE" height="3" style="stroke:#EEEEEE;stroke-width:1.0;" width="864" x="0" y="300.1328"/><line style="stroke:#000000;stroke-width:1.0;" x1="0" x2="864" y1="300.1328" y2="300.1328"/><line style="stroke:#000000;stroke-width:1.0;" x1="0" x2="864" y1="303.1328" y2="303.1328"/><rect fill="#EEEEEE" height="24.3516" style="stroke:#000000;stroke-width:2.0;" width="261" x="301.5" y="288.957"/><text fill="#000000" font-family="sans-serif" font-size="13" font-weight="bold" lengthAdjust="spacing" textLength="243" x="307.5" y="306.4521">POI Movement to METEOR Focal Point</text><polygon fill="#181818" points="274,341.6602,284,345.6602,274,349.6602,278,345.6602" style="stroke:#181818;stroke-width:1.0;"/><line style="stroke:#181818;stroke-width:1.0;" x1="115" x2="280" y1="345.6602" y2="345.6602"/><text fill="#000000" font-family="sans-serif" font-size="13" lengthAdjust="spacing" textLength="130" x="122" y="340.8037">Stage Movement CMD</text><polygon fill="#181818" points="427.5,372.0117,437.5,376.0117,427.5,380.0117,431.5,376.0117" style="stroke:#181818;stroke-width:1.0;"/><line style="stroke:#181818;stroke-width:1.0;" x1="296" x2="433.5" y1="376.0117" y2="376.0117"/><text fill="#000000" font-family="sans-serif" font-size="13" lengthAdjust="spacing" textLength="77" x="303" y="371.1553">xT Command</text><polygon fill="#181818" points="307,402.3633,297,406.3633,307,410.3633,303,406.3633" style="stroke:#181818;stroke-width:1.0;"/><line style="stroke:#181818;stroke-width:1.0;" x1="301" x2="438.5" y1="406.3633" y2="406.3633"/><text fill="#000000" font-family="sans-serif" font-size="13" lengthAdjust="spacing" textLength="47" x="313" y="401.5068">Position</text><polygon fill="#181818" points="126,432.7148,116,436.7148,126,440.7148,122,436.7148" style="stroke:#181818;stroke-width:1.0;"/><line style="stroke:#181818;stroke-width:1.0;" x1="120" x2="290" y1="436.7148" y2="436.7148"/><text fill="#000000" font-family="sans-serif" font-size="13" lengthAdjust="spacing" textLength="57" x="132" y="431.8584">Feedback</text><rect fill="#EEEEEE" height="3" style="stroke:#EEEEEE;stroke-width:1.0;" width="864" x="0" y="465.8906"/><line style="stroke:#000000;stroke-width:1.0;" x1="0" x2="864" y1="465.8906" y2="465.8906"/><line style="stroke:#000000;stroke-width:1.0;" x1="0" x2="864" y1="468.8906" y2="468.8906"/><rect fill="#EEEEEE" height="24.3516" style="stroke:#000000;stroke-width:2.0;" width="141" x="361.5" y="454.7148"/><text fill="#000000" font-family="sans-serif" font-size="13" font-weight="bold" lengthAdjust="spacing" textLength="123" x="367.5" y="472.21">Setting up METEOR</text><polygon fill="#181818" points="600,507.418,610,511.418,600,515.418,604,511.418" style="stroke:#181818;stroke-width:1.0;"/><line style="stroke:#181818;stroke-width:1.0;" x1="115" x2="606" y1="511.418" y2="511.418"/><text fill="#000000" font-family="sans-serif" font-size="13" lengthAdjust="spacing" textLength="151" x="122" y="506.5615">Drive Objective to Position</text><polygon fill="#181818" points="126,537.7695,116,541.7695,126,545.7695,122,541.7695" style="stroke:#181818;stroke-width:1.0;"/><line style="stroke:#181818;stroke-width:1.0;" x1="120" x2="611" y1="541.7695" y2="541.7695"/><text fill="#000000" font-family="sans-serif" font-size="13" lengthAdjust="spacing" textLength="17" x="132" y="536.9131">Ok</text><path d="M10,556.7695 L253,556.7695 L253,565.1211 L243,575.1211 L10,575.1211 L10,556.7695 " fill="#EEEEEE" style="stroke:#000000;stroke-width:1.5;"/><rect fill="none" height="79.0547" style="stroke:#000000;stroke-width:1.5;" width="707" x="10" y="556.7695"/><text fill="#000000" font-family="sans-serif" font-size="13" font-weight="bold" lengthAdjust="spacing" textLength="198" x="25" y="571.2646">Package: SET_INTENSITY(float)</text><polygon fill="#181818" points="600,593.4727,610,597.4727,600,601.4727,604,597.4727" style="stroke:#181818;stroke-width:1.0;"/><line style="stroke:#181818;stroke-width:1.0;" x1="115" x2="606" y1="597.4727" y2="597.4727"/><text fill="#000000" font-family="sans-serif" font-size="13" lengthAdjust="spacing" textLength="172" x="122" y="592.6162">Set LED Intensity in [0,1] (int)</text><polygon fill="#181818" points="126,623.8242,116,627.8242,126,631.8242,122,627.8242" style="stroke:#181818;stroke-width:1.0;"/><line style="stroke:#181818;stroke-width:1.0;" x1="120" x2="611" y1="627.8242" y2="627.8242"/><text fill="#000000" font-family="sans-serif" font-size="13" lengthAdjust="spacing" textLength="52" x="132" y="622.9678">Received</text><path d="M10,649.8242 L231,649.8242 L231,658.1758 L221,668.1758 L10,668.1758 L10,649.8242 " fill="#EEEEEE" style="stroke:#000000;stroke-width:1.5;"/><rect fill="none" height="79.0547" style="stroke:#000000;stroke-width:1.5;" width="707" x="10" y="649.8242"/><text fill="#000000" font-family="sans-serif" font-size="13" font-weight="bold" lengthAdjust="spacing" textLength="176" x="25" y="664.3193">Package: SET_FLUOCOLOR</text><polygon fill="#181818" points="600,686.5273,610,690.5273,600,694.5273,604,690.5273" style="stroke:#181818;stroke-width:1.0;"/><line style="stroke:#181818;stroke-width:1.0;" x1="115" x2="606" y1="690.5273" y2="690.5273"/><text fill="#000000" font-family="sans-serif" font-size="13" lengthAdjust="spacing" textLength="290" x="122" y="685.6709">Set fluorescence color (=position of filte cube) (int)</text><polygon fill="#181818" points="126,716.8789,116,720.8789,126,724.8789,122,720.8789" style="stroke:#181818;stroke-width:1.0;"/><line style="stroke:#181818;stroke-width:1.0;" x1="120" x2="611" y1="720.8789" y2="720.8789"/><text fill="#000000" font-family="sans-serif" font-size="13" lengthAdjust="spacing" textLength="52" x="132" y="716.0225">Received</text><path d="M10,742.8789 L245,742.8789 L245,751.2305 L235,761.2305 L10,761.2305 L10,742.8789 " fill="#EEEEEE" style="stroke:#000000;stroke-width:1.5;"/><rect fill="none" height="79.0547" style="stroke:#000000;stroke-width:1.5;" width="707" x="10" y="742.8789"/><text fill="#000000" font-family="sans-serif" font-size="13" font-weight="bold" lengthAdjust="spacing" textLength="190" x="25" y="757.374">Package: SET_EXPOSURE(int)</text><polygon fill="#181818" points="600,779.582,610,783.582,600,787.582,604,783.582" style="stroke:#181818;stroke-width:1.0;"/><line style="stroke:#181818;stroke-width:1.0;" x1="115" x2="606" y1="783.582" y2="783.582"/><text fill="#000000" font-family="sans-serif" font-size="13" lengthAdjust="spacing" textLength="142" x="122" y="778.7256">Set exposure time in ms</text><polygon fill="#181818" points="126,809.9336,116,813.9336,126,817.9336,122,813.9336" style="stroke:#181818;stroke-width:1.0;"/><line style="stroke:#181818;stroke-width:1.0;" x1="120" x2="611" y1="813.9336" y2="813.9336"/><text fill="#000000" font-family="sans-serif" font-size="13" lengthAdjust="spacing" textLength="52" x="132" y="809.0771">Received</text><path d="M10,835.9336 L231,835.9336 L231,844.2852 L221,854.2852 L10,854.2852 L10,835.9336 " fill="#EEEEEE" style="stroke:#000000;stroke-width:1.5;"/><rect fill="none" height="109.4063" style="stroke:#000000;stroke-width:1.5;" width="844" x="10" y="835.9336"/><text fill="#000000" font-family="sans-serif" font-size="13" font-weight="bold" lengthAdjust="spacing" textLength="176" x="25" y="850.4287">Package: SET_FOCUS(float)</text><polygon fill="#181818" points="600,872.6367,610,876.6367,600,880.6367,604,876.6367" style="stroke:#181818;stroke-width:1.0;"/><line style="stroke:#181818;stroke-width:1.0;" x1="115" x2="606" y1="876.6367" y2="876.6367"/><text fill="#000000" font-family="sans-serif" font-size="13" lengthAdjust="spacing" textLength="247" x="122" y="871.7803">Set absolute focus value (drive objective in)</text><polygon fill="#181818" points="773,902.9883,783,906.9883,773,910.9883,777,906.9883" style="stroke:#181818;stroke-width:1.0;"/><line style="stroke:#181818;stroke-width:1.0;" x1="612" x2="779" y1="906.9883" y2="906.9883"/><text fill="#000000" font-family="sans-serif" font-size="13" lengthAdjust="spacing" textLength="80" x="619" y="902.1318">Set focus abs</text><polygon fill="#181818" points="126,933.3398,116,937.3398,126,941.3398,122,937.3398" style="stroke:#181818;stroke-width:1.0;"/><line style="stroke:#181818;stroke-width:1.0;" x1="120" x2="611" y1="937.3398" y2="937.3398"/><text fill="#000000" font-family="sans-serif" font-size="13" lengthAdjust="spacing" textLength="51" x="132" y="932.4834">Success</text><path d="M10,959.3398 L199,959.3398 L199,967.6914 L189,977.6914 L10,977.6914 L10,959.3398 " fill="#EEEEEE" style="stroke:#000000;stroke-width:1.5;"/><rect fill="none" height="378.2188" style="stroke:#000000;stroke-width:1.5;" width="844" x="10" y="959.3398"/><text fill="#000000" font-family="sans-serif" font-size="13" font-weight="bold" lengthAdjust="spacing" textLength="144" x="25" y="973.835">Package: AUTOFOCUS</text><polygon fill="#181818" points="600,996.043,610,1000.043,600,1004.043,604,1000.043" style="stroke:#181818;stroke-width:1.0;"/><line style="stroke:#181818;stroke-width:1.0;" x1="115" x2="606" y1="1000.043" y2="1000.043"/><text fill="#000000" font-family="sans-serif" font-size="13" lengthAdjust="spacing" textLength="173" x="122" y="995.1865">Start autofocussing procedure</text><polygon fill="#181818" points="773,1026.3945,783,1030.3945,773,1034.3945,777,1030.3945" style="stroke:#181818;stroke-width:1.0;"/><line style="stroke:#181818;stroke-width:1.0;" x1="612" x2="779" y1="1030.3945" y2="1030.3945"/><text fill="#000000" font-family="sans-serif" font-size="13" lengthAdjust="spacing" textLength="80" x="619" y="1025.5381">Set focus abs</text><polygon fill="#181818" points="773,1056.7461,783,1060.7461,773,1064.7461,777,1060.7461" style="stroke:#181818;stroke-width:1.0;"/><line style="stroke:#181818;stroke-width:1.0;" x1="612" x2="779" y1="1060.7461" y2="1060.7461"/><text fill="#000000" font-family="sans-serif" font-size="13" lengthAdjust="spacing" textLength="149" x="619" y="1055.8896">Acquire coarse test stack</text><polygon fill="#181818" points="623,1087.0977,613,1091.0977,623,1095.0977,619,1091.0977" style="stroke:#181818;stroke-width:1.0;"/><line style="stroke:#181818;stroke-width:1.0;" x1="617" x2="784" y1="1091.0977" y2="1091.0977"/><text fill="#000000" font-family="sans-serif" font-size="13" lengthAdjust="spacing" textLength="42" x="629" y="1086.2412">Images</text><line style="stroke:#181818;stroke-width:1.0;" x1="612" x2="654" y1="1121.4492" y2="1121.4492"/><line style="stroke:#181818;stroke-width:1.0;" x1="654" x2="654" y1="1121.4492" y2="1134.4492"/><line style="stroke:#181818;stroke-width:1.0;" x1="613" x2="654" y1="1134.4492" y2="1134.4492"/><polygon fill="#181818" points="623,1130.4492,613,1134.4492,623,1138.4492,619,1134.4492" style="stroke:#181818;stroke-width:1.0;"/><text fill="#000000" font-family="sans-serif" font-size="13" lengthAdjust="spacing" textLength="118" x="619" y="1116.5928">Calculate best focus</text><polygon fill="#181818" points="773,1160.8008,783,1164.8008,773,1168.8008,777,1164.8008" style="stroke:#181818;stroke-width:1.0;"/><line style="stroke:#181818;stroke-width:1.0;" x1="612" x2="779" y1="1164.8008" y2="1164.8008"/><text fill="#000000" font-family="sans-serif" font-size="13" lengthAdjust="spacing" textLength="114" x="619" y="1159.9443">Adjust to new focus</text><polygon fill="#181818" points="773,1191.1523,783,1195.1523,773,1199.1523,777,1195.1523" style="stroke:#181818;stroke-width:1.0;"/><line style="stroke:#181818;stroke-width:1.0;" x1="612" x2="779" y1="1195.1523" y2="1195.1523"/><text fill="#000000" font-family="sans-serif" font-size="13" lengthAdjust="spacing" textLength="130" x="619" y="1190.2959">Acquire fine test stack</text><polygon fill="#181818" points="623,1221.5039,613,1225.5039,623,1229.5039,619,1225.5039" style="stroke:#181818;stroke-width:1.0;"/><line style="stroke:#181818;stroke-width:1.0;" x1="617" x2="784" y1="1225.5039" y2="1225.5039"/><text fill="#000000" font-family="sans-serif" font-size="13" lengthAdjust="spacing" textLength="42" x="629" y="1220.6475">Images</text><line style="stroke:#181818;stroke-width:1.0;" x1="612" x2="654" y1="1255.8555" y2="1255.8555"/><line style="stroke:#181818;stroke-width:1.0;" x1="654" x2="654" y1="1255.8555" y2="1268.8555"/><line style="stroke:#181818;stroke-width:1.0;" x1="613" x2="654" y1="1268.8555" y2="1268.8555"/><polygon fill="#181818" points="623,1264.8555,613,1268.8555,623,1272.8555,619,1268.8555" style="stroke:#181818;stroke-width:1.0;"/><text fill="#000000" font-family="sans-serif" font-size="13" lengthAdjust="spacing" textLength="118" x="619" y="1250.999">Calculate best focus</text><polygon fill="#181818" points="773,1295.207,783,1299.207,773,1303.207,777,1299.207" style="stroke:#181818;stroke-width:1.0;"/><line style="stroke:#181818;stroke-width:1.0;" x1="612" x2="779" y1="1299.207" y2="1299.207"/><text fill="#000000" font-family="sans-serif" font-size="13" lengthAdjust="spacing" textLength="114" x="619" y="1294.3506">Adjust to new focus</text><polygon fill="#181818" points="126,1325.5586,116,1329.5586,126,1333.5586,122,1329.5586" style="stroke:#181818;stroke-width:1.0;"/><line style="stroke:#181818;stroke-width:1.0;" x1="120" x2="611" y1="1329.5586" y2="1329.5586"/><text fill="#000000" font-family="sans-serif" font-size="13" lengthAdjust="spacing" textLength="51" x="132" y="1324.7021">Success</text><path d="M10,1351.5586 L363,1351.5586 L363,1359.9102 L353,1369.9102 L10,1369.9102 L10,1351.5586 " fill="#EEEEEE" style="stroke:#000000;stroke-width:1.5;"/><rect fill="none" height="95.4063" style="stroke:#000000;stroke-width:1.5;" width="844" x="10" y="1351.5586"/><text fill="#000000" font-family="sans-serif" font-size="13" font-weight="bold" lengthAdjust="spacing" textLength="308" x="25" y="1366.0537">Package: ACQUIRE_Z(Stack_Length, Stack_Step)</text><polygon fill="#181818" points="600,1388.2617,610,1392.2617,600,1396.2617,604,1392.2617" style="stroke:#181818;stroke-width:1.0;"/><line style="stroke:#181818;stroke-width:1.0;" x1="115" x2="606" y1="1392.2617" y2="1392.2617"/><text fill="#000000" font-family="sans-serif" font-size="13" lengthAdjust="spacing" textLength="334" x="122" y="1387.4053">Acquire a full z-Stack with defined full range and step size</text><polygon fill="#181818" points="773,1434.9648,783,1438.9648,773,1442.9648,777,1438.9648" style="stroke:#181818;stroke-width:1.0;"/><line style="stroke:#181818;stroke-width:1.0;" x1="612" x2="779" y1="1438.9648" y2="1438.9648"/><text fill="#000000" font-family="sans-serif" font-size="13" lengthAdjust="spacing" textLength="138" x="619" y="1417.7568">Set imaging parameters</text><text fill="#000000" font-family="sans-serif" font-size="13" lengthAdjust="spacing" textLength="103" x="619" y="1434.1084">and acquire stack</text><path d="M10,1460.9648 L373,1460.9648 L373,1469.3164 L363,1479.3164 L10,1479.3164 L10,1460.9648 " fill="#EEEEEE" style="stroke:#000000;stroke-width:1.5;"/><rect fill="none" height="48.7031" style="stroke:#000000;stroke-width:1.5;" width="707" x="10" y="1460.9648"/><text fill="#000000" font-family="sans-serif" font-size="13" font-weight="bold" lengthAdjust="spacing" textLength="318" x="25" y="1475.46">Package: ZSTACK (np-array, NP_shape, NP_dtype)</text><polygon fill="#181818" points="126,1497.668,116,1501.668,126,1505.668,122,1501.668" style="stroke:#181818;stroke-width:1.0;"/><line style="stroke:#181818;stroke-width:1.0;" x1="120" x2="611" y1="1501.668" y2="1501.668"/><text fill="#000000" font-family="sans-serif" font-size="13" lengthAdjust="spacing" textLength="233" x="132" y="1496.8115">Transmit the acquired stack to controller</text><!--MD5=[cc8a625bf6d558155050c6e1de040af0]
@startuml

participant MicroscopePC [
  =Microscope PC
  - - - -
  ""SerialFIB Server""
  ""iFLM Automation Client""
  ]

participant DriverPC [
  =Driver PC
  - - - -
  ""xT Server""
  ""SerialFIB Client""
  ]

participant Scios [
  =Scios FIBSEM
  - - - -
  ""xT Client""
  """"
  ]

participant MeteorPC [
  =METEOR PC
  - - - -
  ""ODEMIS Server""
  ""iFLM Automation Server""
  ]
participant METEOR [
  =METEOR
  - - - -
  ""ODEMIS Client""
  """"
]

== Setup of SerialFIB ==

== Connection to METEOR ==
MicroscopePC -> MeteorPC: Hello? TCP on Port:53215?
activate MeteorPC
MeteorPC -> METEOR: Startup & Calibration
MeteorPC -> MicroscopePC : Socket Connected
deactivate MeteorPC
== POI Movement to METEOR Focal Point ==
MicroscopePC -> DriverPC: Stage Movement CMD
activate DriverPC
Scios <- DriverPC: xT Command
Scios -> DriverPC: Position
MicroscopePC <- DriverPC: Feedback
deactivate DriverPC
== Setting up METEOR ==

MicroscopePC -> MeteorPC: Drive Objective to Position
MicroscopePC <- MeteorPC: Ok

group Package: SET_INTENSITY(float)
MicroscopePC -> MeteorPC: Set LED Intensity in [0,1] (int) 
MicroscopePC <- MeteorPC: Received
end group

group Package: SET_FLUOCOLOR
MicroscopePC -> MeteorPC: Set fluorescence color (=position of filte cube) (int) 
MicroscopePC <- MeteorPC: Received
end group

group Package: SET_EXPOSURE(int)
MicroscopePC -> MeteorPC: Set exposure time in ms
MicroscopePC <- MeteorPC: Received
end group

group Package: SET_FOCUS(float) 
MicroscopePC -> MeteorPC: Set absolute focus value (drive objective in)
MeteorPC -> METEOR: Set focus abs
MicroscopePC <- MeteorPC: Success
end group

group Package: AUTOFOCUS
MicroscopePC -> MeteorPC: Start autofocussing procedure 
MeteorPC -> METEOR: Set focus abs
MeteorPC -> METEOR: Acquire coarse test stack
METEOR -> MeteorPC: Images
MeteorPC -> MeteorPC: Calculate best focus
MeteorPC -> METEOR: Adjust to new focus
MeteorPC -> METEOR: Acquire fine test stack
METEOR -> MeteorPC: Images
MeteorPC -> MeteorPC: Calculate best focus
MeteorPC -> METEOR: Adjust to new focus

MicroscopePC <- MeteorPC: Success
end group

group Package: ACQUIRE_Z(Stack_Length, Stack_Step)
MicroscopePC -> MeteorPC: Acquire a full z-Stack with defined full range and step size
MeteorPC->METEOR: Set imaging parameters\nand acquire stack
end group

group Package: ZSTACK (np-array, NP_shape, NP_dtype)
MicroscopePC <- MeteorPC: Transmit the acquired stack to controller
end group



@enduml

PlantUML version 1.2022.5(Sat Apr 30 12:55:52 CEST 2022)
(GPL source distribution)
Java Runtime: OpenJDK Runtime Environment
JVM: OpenJDK 64-Bit Server VM
Default Encoding: Cp1252
Language: en
Country: US
--></g></svg>